<?xml version="1.0" encoding="UTF-8" standalone="no"?>
<svg
   xmlns:dc="http://purl.org/dc/elements/1.1/"
   xmlns:cc="http://creativecommons.org/ns#"
   xmlns:rdf="http://www.w3.org/1999/02/22-rdf-syntax-ns#"
   xmlns:svg="http://www.w3.org/2000/svg"
   xmlns="http://www.w3.org/2000/svg"
   xmlns:sodipodi="http://sodipodi.sourceforge.net/DTD/sodipodi-0.dtd"
   xmlns:inkscape="http://www.inkscape.org/namespaces/inkscape"
   version="1.0"
   id="svg1973"
   viewBox="0 0 354.12601 460.68399"
   sodipodi:docname="Logo_Sparkasse_Squared.svg"
   width="354.12601"
   height="460.68399"
   inkscape:version="1.0.1 (0767f8302a, 2020-10-17)">
  <metadata
     id="metadata7">
    <rdf:RDF>
      <cc:Work
         rdf:about="">
        <dc:format>image/svg+xml</dc:format>
        <dc:type
           rdf:resource="http://purl.org/dc/dcmitype/StillImage" />
        <dc:title></dc:title>
      </cc:Work>
    </rdf:RDF>
  </metadata>
  <defs
     id="defs1975" />
  <path
     d="m 177.06289,0 c -8.14008,0 -16.05584,1.697239 -23.23451,4.807141 -7.21069,3.044513 -13.0113,6.729995 -18.42736,12.017836 -5.31988,5.31993 -9.7104,12.114018 -12.81902,19.228579 -3.04452,7.178655 -4.80714,14.293217 -4.80714,22.433301 0,8.140097 1.76391,16.055843 4.80714,23.234493 3.10862,7.082516 7.49914,13.139516 12.81902,18.42735 5.41606,5.35195 11.21667,9.71043 18.42736,12.81904 7.17867,3.04453 15.09443,4.80713 23.23451,4.80713 8.20417,0 16.05584,-1.76389 23.2345,-4.80713 7.11456,-3.10861 13.1395,-7.46709 18.42735,-12.81904 5.3199,-5.287834 9.71041,-11.344834 12.81903,-18.42735 3.04452,-7.17865 4.80715,-15.094396 4.80715,-23.234493 0,-8.140084 -1.76391,-15.254646 -4.80715,-22.433301 C 228.43515,28.938995 224.04464,22.144907 218.72474,16.824977 213.43689,11.537136 207.41195,7.851654 200.29739,4.807141 193.11873,1.698521 185.26706,0 177.06289,0 Z M 58.486833,153.82841 c -8.140082,0 -15.254649,0.89734 -22.433306,4.00594 -7.178658,3.07656 -13.876602,7.49914 -19.228547,12.81903 -5.319895,5.31991 -8.9733189,12.04989 -12.017839,19.22856 C 1.698521,196.99651 0,204.17516 0,212.31524 v 129.79271 h 271.60325 v 36.05352 H 0 v 6.40952 16.82497 c 0,8.17214 1.730572,16.05584 4.807141,23.2345 3.0445201,7.17866 6.729985,13.07541 12.017839,18.42737 5.351945,5.28783 12.049889,9.74246 19.228547,12.81903 7.178657,3.10862 14.293224,4.80713 22.433306,4.80713 H 295.63894 c 8.14008,0 15.25464,-1.69723 22.4333,-4.80713 7.21071,-3.07657 13.94069,-7.5312 19.22855,-12.81903 5.35195,-5.35196 9.71042,-11.24871 12.81904,-18.42737 3.10862,-7.17866 4.00595,-15.06236 4.00595,-23.2345 V 384.57099 271.60328 H 82.522525 V 236.35092 H 354.12578 v -24.03568 c 0,-8.14008 -0.86401,-15.31873 -4.00595,-22.4333 -3.07657,-7.17867 -7.46709,-13.90865 -12.81904,-19.22856 -5.28786,-5.31989 -12.01784,-9.74247 -19.22855,-12.81903 -7.17866,-3.1086 -14.29322,-4.00594 -22.4333,-4.00594 z"
     id="path7445"
     style="fill:#e60005;fill-opacity:1;fill-rule:nonzero;stroke:none" />
</svg>
