<?xml version="1.0" encoding="UTF-8" standalone="no"?>
<svg
   xmlns:dc="http://purl.org/dc/elements/1.1/"
   xmlns:cc="http://creativecommons.org/ns#"
   xmlns:rdf="http://www.w3.org/1999/02/22-rdf-syntax-ns#"
   xmlns:svg="http://www.w3.org/2000/svg"
   xmlns="http://www.w3.org/2000/svg"
   xmlns:sodipodi="http://sodipodi.sourceforge.net/DTD/sodipodi-0.dtd"
   xmlns:inkscape="http://www.inkscape.org/namespaces/inkscape"
   version="1.1"
   id="svg3219"
   viewBox="0 0 608.28101 417.75"
   sodipodi:docname="Logo_Volksbank_Squared.svg"
   width="608.28101"
   height="417.75"
   inkscape:version="1.0.1 (0767f8302a, 2020-10-17)">
  <metadata
     id="metadata10">
    <rdf:RDF>
      <cc:Work
         rdf:about="">
        <dc:format>image/svg+xml</dc:format>
        <dc:type
           rdf:resource="http://purl.org/dc/dcmitype/StillImage" />
        <dc:title></dc:title>
      </cc:Work>
    </rdf:RDF>
  </metadata>
  <defs
     id="defs3221" />
  <g
     transform="translate(-45.859375,-323.48718)"
     id="layer1">
    <path
       d="m 45.859375,323.48718 v 417.75 H 654.14062 v -417.75 z"
       id="path26"
       style="fill:#ffffff;fill-opacity:1;fill-rule:nonzero;stroke:none" />
    <path
       d="m 416.26562,651.79967 c -6.00223,31.50758 -11.08917,58.26335 -13.0625,68.65625 h 233.46875 v -68.65625 z m -357.812495,0.625 v 68.65625 H 290.26562 l -15.46875,-68.65625 z"
       id="path54"
       style="fill:#e05f0c;fill-opacity:1;fill-rule:nonzero;stroke:none" />
    <path
       d="m 172.34931,495.00301 -16.87201,-71.0236 h 143.95477 l 46.62005,203.87837 h 1.98977 l 29.3698,-130.60187 c 14.80001,-59.29872 20.39113,-73.2765 103.79742,-73.2765 h 59.98937 c 0,0 -12.11955,54.66137 -27.19913,113.97653 -5.73912,22.62757 -55.82893,19.94712 -53.32938,-1.184 0.26312,-2.20356 2.63112,-18.10535 4.50579,-29.41914 2.72978,-16.28001 -16.26357,-18.31912 -19.68402,-2.20356 -2.43378,11.54401 -13.43512,68.8365 -23.71291,122.70854 H 636.675 V 335.11356 H 58.438561 V 627.85778 H 268.28627 l -29.89602,-132.7561 -66.04094,-0.0987 z"
       id="path62"
       style="fill:#0a438a;fill-opacity:1;fill-rule:nonzero;stroke:none" />
  </g>
</svg>
