<?xml version="1.0" encoding="UTF-8" standalone="no"?>
<svg
   xmlns:dc="http://purl.org/dc/elements/1.1/"
   xmlns:cc="http://creativecommons.org/ns#"
   xmlns:rdf="http://www.w3.org/1999/02/22-rdf-syntax-ns#"
   xmlns:svg="http://www.w3.org/2000/svg"
   xmlns="http://www.w3.org/2000/svg"
   xmlns:sodipodi="http://sodipodi.sourceforge.net/DTD/sodipodi-0.dtd"
   xmlns:inkscape="http://www.inkscape.org/namespaces/inkscape"
   width="160.041mm"
   height="104.297mm"
   viewBox="0 0 160.041 104.297"
   version="1.1"
   id="svg24"
   inkscape:version="1.0.1 (0767f8302a, 2020-10-17)"
   sodipodi:docname="Logo_ING_Squared.svg">
  <defs
     id="defs18" />
  <metadata
     id="metadata21">
    <rdf:RDF>
      <cc:Work
         rdf:about="">
        <dc:format>image/svg+xml</dc:format>
        <dc:type
           rdf:resource="http://purl.org/dc/dcmitype/StillImage" />
        <dc:title></dc:title>
      </cc:Work>
    </rdf:RDF>
  </metadata>
  <g
     inkscape:label="Ebene 1"
     inkscape:groupmode="layer"
     id="layer1">
    <path
       inkscape:connector-curvature="0"
       d="M 56.75763,39.935 V 38.30231 H 53.7924 l -0.26832,0.5412 z m -15.0717,-1.63269 c -0.80498,-0.81862 -1.87373,0 -3.21991,-0.27742 0,0.27742 -0.26377,1.09149 0.53666,1.63269 1.07785,-0.81407 2.41038,-1.35527 2.68325,-1.35527 M 60.2504,22.81675 c 0,0 0.53211,0 0,-0.27287 l -6.18967,-0.54575 c -0.80498,0.54575 -1.88282,0.54575 -2.15115,1.36437 l -0.53665,0.27287 c 0.53665,2.17389 0.53665,4.6161 0.53665,7.06287 1.07785,0.26832 2.42402,1.08239 2.42402,2.71509 1.0733,0.5412 2.42403,0.80952 3.22445,1.62814 0.53666,-0.27287 1.0733,-1.08694 1.34618,-1.90102 -1.34618,-1.35982 -3.76565,-0.54119 -3.76565,-2.98341 l -1.6145,-0.81407 c 0,-1.63724 0,-3.26993 -0.53665,-4.35233 l 0.53665,-0.5412 c 0,0.5412 0.26832,0.80952 0.80952,1.35982 1.0733,0 2.42403,0.26378 3.22445,-0.5503 0.53666,-0.26832 0.53666,-1.62359 1.34618,-1.62359 0.26832,0 1.07785,0 1.34617,-0.81862 M 43.84618,23.3625 c 0,-0.54575 -0.5412,-1.0824 -1.35527,-1.36437 h -6.17604 -0.54574 c 0,0.81862 0.80952,1.63724 1.6145,1.63724 0,0.81407 0.81862,1.35527 1.35072,1.62359 0.53665,0.5503 1.07785,0.5503 1.88282,0 0.79589,0.5503 1.06876,-0.80952 1.34163,0 0,1.6327 0,2.44677 -0.27287,3.80659 -0.27287,1.90101 -2.1466,1.63269 -3.21991,2.71508 -0.26377,0.5412 -1.08239,2.1739 -0.26377,2.98797 0.80043,-0.54575 1.60995,-0.81407 2.6787,-1.35527 0,-0.81407 1.07785,-1.6327 2.14661,-2.44677 0,-2.44221 0.81862,-4.89352 0.81862,-7.60406 m 2.41492,-6.517127 c -0.80043,-0.545746 -2.41492,0.268325 -3.23354,0.814072 -1.06876,0.272873 -2.14661,1.082397 -2.14661,1.901017 h 3.229 c 0.53211,-0.81862 1.35072,-1.901017 2.15115,-2.715089 m 9.42322,2.715089 c 0,-0.81862 -0.27742,-0.81862 -0.54574,-1.082398 -1.34618,0 -1.34618,-2.178437 -2.41948,-1.632691 -0.80952,0 -1.34617,-0.545746 -1.87827,0 -0.26833,0.268325 0,0.268325 0.26832,0.268325 1.60995,0 0.80043,2.178438 1.87828,2.446764 z m 9.40503,-1.628144 c 0.5412,-1.632691 0.81408,-4.074906 -0.26832,-5.70305 -0.80498,-0.81862 -2.15115,-1.623596 -3.49733,-2.446763 l -2.15115,0.823167 c -1.07784,0.804976 -1.6145,1.623596 -1.6145,3.25174 1.88283,0.814071 4.04308,2.987961 4.8435,4.88443 h 0.80498 c 0.80952,-0.809524 1.6145,0 1.88282,-0.809524 M 40.08053,13.857412 C 39.8122,11.137775 36.57865,10.605672 34.97325,9.782505 h -0.81407 c -2.41493,0.545746 -2.95613,2.983414 -3.22446,4.888978 0.80953,2.442215 2.41948,0.814072 3.76111,2.442215 1.0733,-0.814071 4.03852,-2.71054 5.3847,-3.256286 M 6.9992,96.965562 c -0.26833,0 -1.07331,-0.81862 -1.88283,-0.81862 -0.80952,1.62815 0,2.98797 0,4.884458 0,0.55484 -0.26833,1.64634 -0.26833,1.64634 -0.54119,0 -1.61904,-1.37347 -2.15115,-2.183 v -4.611578 l 2.68326,-3.2654 c 1.61905,1.08695 2.1557,2.71965 1.61905,4.3478 m 7.5313,-3.26085 c 0,1.35073 -0.26833,2.44223 -1.07785,3.26085 -0.26833,-1.0824 -1.07785,-2.44678 -2.42403,-2.44678 -1.06875,2.16936 -1.34162,2.97889 -0.26377,6.512618 -0.80498,0.55484 -1.6145,0.82771 -2.42858,1.64634 -0.52755,-1.37347 -0.80042,-3.274498 -0.80042,-4.361448 0,-1.90103 0.5321,-3.79751 1.06875,-5.42566 0.54575,-1.07331 1.35527,-2.43768 2.16025,-3.2654 l 2.96067,-0.25923 c -1.07785,0.25923 -1.07785,1.62815 -1.07785,2.45132 0.53665,0.25923 1.88283,0.52756 1.88283,1.88739 m 9.68245,1.6327 c 0,2.43768 -3.49733,5.693988 -3.49733,5.693988 0,-1.628158 0.53665,-3.256308 0.80498,-4.884458 0,0 -1.07785,-1.0915 -2.42403,-1.0915 -0.80042,0.28197 -0.80042,1.0915 -1.0733,1.91012 -0.80497,1.62815 -2.42402,3.247208 -2.95158,4.893548 -0.26832,0 -0.26832,-0.27287 -0.26832,-0.27287 0,-2.451328 0.26832,-7.617748 2.15115,-9.509688 1.6145,-1.6236 2.41493,-1.6236 4.02488,-1.90102 l 1.6236,0.27742 -1.0824,1.6236 c 1.0824,0.54121 2.69235,1.62816 2.69235,3.26086 m 45.44703,0.80953 -0.79588,0.81862 c -0.80952,-0.81862 -0.27287,-3.26085 -1.61905,-3.53828 -1.34162,0 -2.42402,-1.35073 -2.96067,-1.60996 l 0.80497,-0.55939 c 0,0 0.81408,-0.26378 1.35073,0 0.53665,0.55939 1.0733,0.81862 1.0733,1.6327 0.5412,0.53665 1.35072,0 1.88283,0.53665 0.26377,0.82318 0.54119,1.91013 0.26377,2.71966 m 9.68701,-4.07039 c -0.26833,0.81408 -0.5412,2.17391 -0.80953,3.26086 -0.80043,-1.6327 -1.34163,-4.07948 -3.22445,-4.07948 -0.26833,-1.0824 -0.53665,-1.89193 -1.60996,-2.44678 l -2.41947,-0.26833 c 0.26378,0.82318 1.87828,1.08241 1.07785,2.71511 0.80043,0.81862 1.88282,0.81862 2.41493,2.16935 0.53665,0.82318 0,1.91013 0.26832,2.71966 l -1.88282,0.81862 c 0,-1.62815 0.54119,-4.07493 -1.6145,-4.88901 -1.60996,0.54121 -1.88738,-1.6236 -2.95613,-2.45132 -0.53665,-0.25923 -0.53665,-1.62815 -1.34618,-0.81408 -1.34162,0.81408 -3.229,0 -4.57517,0.81408 l 1.34617,-2.44223 c 1.0733,-0.81407 2.42403,-0.27287 3.49733,-0.81407 l 2.1466,-0.27287 c 2.42857,0 4.3114,1.08694 6.4671,1.90102 1.06875,0.81407 1.60995,1.62815 1.60995,2.99707 0.80043,0.26378 1.88283,0.26378 1.60996,1.0824 m 43.56899,-0.25923 c -0.54121,0.80044 -0.79133,1.07331 -1.06876,1.60996 0,-1.35073 -1.6145,-2.16935 -2.68326,-4.61613 l 1.06876,-1.90102 c 1.08695,0.27287 1.89193,1.08695 1.89193,2.45587 0,0.25923 -0.27743,1.08695 0,1.62815 0,0.26378 0.79133,0.26378 0.79133,0.82317 m -90.90796,0.80044 -0.80497,2.71965 -1.87828,-4.88446 c -2.42402,-2.45587 -4.84805,-2.72875 -6.46254,-3.54282 -0.80498,-0.5412 -0.80498,0.27287 -1.60996,0 0,-0.81407 0.26833,-1.62814 1.07785,-2.44221 h 1.60541 l 1.61904,0.81407 c 1.07785,0.81407 2.96068,0.81407 2.96068,2.44221 0,0.54575 -0.26378,0.81862 0.26832,1.6418 l 2.96068,1.08695 z m 82.3124,-2.99253 c 0,0.27742 -0.53665,0.82772 -0.53665,0.82772 -1.34163,-0.82772 -2.42404,-1.36437 -4.0431,-1.36437 0,-0.81863 -0.52755,-2.17845 -1.0733,-2.17845 -1.87829,0 -1.61451,0.81407 -2.95614,0.81407 l 2.42404,-2.44221 c 0.26378,-0.5412 0.53211,-0.5412 1.07786,-0.5412 0.79134,0.5412 1.06876,0.81407 1.87828,0.81407 0,0.5412 0,0.81407 -0.26832,1.62814 0.53665,0.5412 1.34163,0 1.87829,0.5412 0.81861,0.27288 1.61905,0.81862 1.61905,1.90103 m -31.74443,1.6327 h -0.26378 c -0.54121,-0.80498 -0.80498,-1.6327 -1.34618,-1.6327 0.80497,-3.2563 -0.80953,-5.70306 -1.34618,-8.4136 l -0.27287,-0.80952 c 1.07329,1.34617 3.22901,2.70599 2.96523,4.33868 0.26378,2.44221 0.53665,4.62521 0.26378,6.51714 m -46.26113,-2.71511 -1.88737,1.91013 c -0.52755,-0.82772 0,-2.45587 -1.0733,-3.26995 0,-0.27287 0.80498,-0.81407 0.54575,-1.08694 -0.54575,-0.5412 -3.77475,-1.62814 -3.77475,-1.62814 -1.34163,-0.81408 -2.41493,-1.62815 -3.49278,-2.98342 -1.34162,-0.27287 -2.1557,0.5412 -3.49732,0.80953 -0.27287,-0.26833 -0.27287,-0.80953 -0.27287,-0.80953 0.80952,-0.81862 0.80952,-2.44676 2.42857,-2.44676 0.80497,0 1.87827,0 2.6878,0.81407 1.0733,0 1.6145,1.09149 2.41493,1.35982 1.35072,1.62814 2.42402,1.89647 3.50642,2.71054 -0.27742,0.81862 0.25923,1.35982 0.79588,1.63269 1.61904,0 1.0733,1.62814 1.61904,2.98796 m 88.4976,-4.34778 c 0,1.63269 0,2.17389 -0.80953,3.52916 l -1.87829,-2.44221 c 0.79134,-0.81407 0.79134,-2.17389 1.60996,-3.25629 0.26833,0 1.07786,1.89647 1.07786,2.16934 m -47.88496,1.90102 c -1.34163,-0.81407 -2.95613,-0.81407 -3.76565,-2.17389 -0.80043,-0.26833 -1.87828,-0.26833 -3.22446,-0.26833 -1.0733,0.26833 -2.42402,0.26833 -3.49732,0.26833 -0.27742,0 0,-0.26833 -0.53665,-0.81407 -1.61905,0.81407 -3.50188,0.81407 -5.12092,2.44676 l 1.35072,-3.26083 c 1.0733,0 1.88282,-0.80953 2.6878,-0.80953 0.80952,-0.27287 1.88283,-0.27287 2.69235,-0.27287 v 0.27287 c 3.229,0 6.73087,-0.27287 9.15035,2.43767 z m 40.35817,-2.44222 c 0,1.08695 -0.26834,1.35073 -0.53212,2.71509 -2.16935,-0.27287 -1.88283,-2.44676 -2.43313,-2.71509 -1.07786,-1.62814 -3.22902,-0.54574 -4.85262,-0.54574 -0.25468,-1.6236 0.53666,-1.6236 0.53666,-2.44222 0.81862,0 1.62814,-0.81407 2.43768,-0.26377 1.34163,-0.5503 2.14206,0.80952 3.49734,0.80952 0.53665,0.81407 1.07785,1.89647 1.34619,2.44221 M 37.6565,79.583492 c 0,0.81862 -0.27287,4.33868 -0.27287,4.33868 -0.53665,-2.17389 -1.88283,-4.07036 -3.48368,-4.07036 -1.0824,-0.81407 -1.89193,-1.62814 -2.1557,-2.44222 -0.80953,-0.81861 -1.61905,-0.26832 -2.69235,-0.81861 -1.0733,0 -2.41948,0 -3.7611,0.55029 v -0.55029 l 1.87827,-2.44677 c 2.1557,0.54575 4.57518,0 5.3847,1.62815 1.06876,0.81862 2.41948,1.36891 2.94703,2.17389 v 0.81862 c 0.54575,0.27287 1.6236,0.55029 2.1557,0.81862 m 11.83815,-0.54575 c -1.07785,0.81407 -2.16024,0.81407 -3.23355,0.54575 l -1.61904,-2.44222 c 1.08239,0.26832 2.69235,0.26832 4.04307,0 z m 47.075275,1.36437 c 0,1.34617 -1.89648,3.25173 -2.41949,4.33868 0.52301,-1.63269 0.79588,-4.33868 0,-4.33868 -0.54575,-0.27742 -1.62815,0.26377 -1.62815,-0.5503 0,-0.81407 0.27287,-1.90556 0.27287,-2.71054 0,-0.81862 -0.80498,-1.36891 -0.80498,-2.17844 0,-1.63269 1.88284,-1.90556 2.42404,-2.98796 0.5321,1.0824 0.25923,2.44222 0.25923,3.52916 0.27287,0.81862 0.80953,2.44222 0.27287,3.81113 0,0.80953 1.62361,0.26833 1.62361,1.08695 m -20.442845,0 c -1.35072,0 -2.42403,0 -3.23355,-1.36437 -0.26832,0 -0.80498,-0.81407 -1.34617,-0.27287 -1.07331,1.08694 -2.68326,-0.81862 -4.30231,-0.5412 -0.80497,0.81407 -1.88737,1.35982 -2.96067,1.62814 l -0.26833,-0.26832 c 0,-0.81862 0.80498,-1.63724 1.6145,-2.44222 1.88283,0.80498 3.23355,-2.99706 5.11183,-0.81862 0.5412,0.26833 1.61905,0.26833 2.15115,0.26833 1.88283,0.55029 2.41948,2.44676 3.23355,3.81113 m -19.10113,-1.63724 h -0.26832 c -0.5412,0 -2.42403,-0.81862 -2.96523,-1.6236 -0.26832,-0.55029 -0.26832,-1.36891 -0.26832,-1.36891 0.80952,0 1.35072,-0.26833 2.16024,-0.26833 z m 61.06925,1.63724 c -1.89648,0 -0.80953,-3.81113 -4.85263,-3.81113 -1.07785,0 -1.60997,1.35527 -2.69236,1.63269 0,-0.27742 0.27287,-1.90102 0.27287,-1.90102 0,-0.81862 0.26832,-1.63269 1.34163,-2.44676 2.15571,0 1.61906,0.81407 3.23357,1.35527 1.07785,0.27287 1.61905,1.09149 2.69691,1.09149 z m -28.256185,-2.99252 c 0,1.62815 -0.800435,3.25629 -1.077855,4.88444 0,-1.89192 -0.53665,-3.25629 -1.60541,-4.34778 0,-0.53666 0.79588,-0.80498 0.26378,-1.35527 0,0 -1.60996,-0.81862 -1.60996,-1.90102 0,-1.35982 1.0733,-2.17389 1.60996,-2.99251 0,-0.26378 1.06876,0.55029 1.06876,2.17844 0,0.5412 0,1.08694 -0.26378,1.89647 -0.27288,0.81862 1.614505,0.81862 1.614505,1.63723 m 13.170755,-5.43472 c 0,1.0824 -0.54121,1.90102 -0.26834,2.98796 -0.80497,-1.63269 -1.61905,-3.26538 -2.41948,-4.888972 -0.26833,0 -0.532105,0 -0.532105,-0.26833 l 0.800425,-0.5412 c 0.53211,0 1.34619,0 1.34619,0.5412 0.5321,0.54575 1.07331,1.35527 1.07331,2.169342 m 16.42251,2.16934 c -0.81407,-0.26832 -2.67873,-0.54574 -2.67873,-1.35527 0,-1.09149 -0.55484,-1.35527 -1.88283,-1.35527 -1.35074,0 -2.16934,0.26378 -3.77932,0.81407 0,0 -0.80952,-1.086942 -1.08694,-2.173882 0.54575,-0.26833 2.69692,-1.0915 3.77931,-1.0915 1.89194,0 4.02946,0 4.02946,1.0915 0,0.81407 1.61905,1.359812 1.61905,4.070352 M 48.9489,68.44571 c -0.26377,1.62815 -1.0733,2.16934 -2.41492,4.070362 -1.07331,0.5412 -2.6878,0.81407 -4.30685,1.62814 0.26378,-0.81407 1.07785,-1.08694 1.61905,-1.89647 0.79588,-0.81407 1.61449,-2.173882 1.87827,-3.265382 1.34618,-0.53665 2.15115,-0.53665 3.22445,-0.53665 m 50.035965,3.802032 c 0,1.62815 -0.27742,3.80204 -0.27742,5.69851 -0.79589,0 -0.79589,-0.80498 -0.79589,-1.6236 -0.5412,-1.63269 -0.81407,-3.26538 -1.34163,-4.88898 -0.80498,-2.451312 -2.15571,-4.338682 -3.22902,-6.794542 -0.26378,-1.35527 -1.6236,-1.90557 -2.69236,-2.71964 1.34163,0 2.69236,0.27742 3.76567,1.0915 0,0.80952 0.25923,1.09604 1.06876,1.91011 1.88738,0 1.61451,2.43312 3.22447,3.79749 0,0.26377 -0.52756,0.26377 -0.79589,0.81861 -0.5412,0 -0.81407,1.07785 -0.81407,1.07785 0.81407,0.54575 1.60996,0.818622 1.88738,1.632692 M 43.84618,66.00349 c -0.81862,1.6327 -1.61905,3.26084 -3.22901,4.07037 -1.07784,0 -2.41492,0.54119 -4.03852,0 0.80498,-0.80953 1.6236,-1.0915 2.69235,-1.62815 l 2.41493,-2.44222 z m 16.1359,4.07037 c -0.80953,0.54119 -2.42403,0.81407 -3.22445,0.81407 -2.16025,-1.0824 -2.16025,-3.25174 -4.03853,-4.07036 -0.27287,-0.27288 -0.54119,-0.81408 -0.54119,-1.08695 l 4.57972,0.81407 c -0.27288,0.80953 0.26832,1.0915 0.80042,1.0915 0.80953,0.80952 1.6145,1.62814 2.42403,2.43767 m 31.735225,0 c -0.26378,0.54119 -0.80953,0.81407 -1.06876,0.81407 0,0 -1.350725,-1.35073 -1.609965,-2.44222 -0.27742,-1.35072 0.532105,-3.25629 0.532105,-3.25629 0.26833,0 0.53211,0.5412 1.07786,0.5412 0.25923,0.27287 0,1.08695 0.25923,1.90557 0.54575,0.80952 1.35073,1.62814 0.80953,2.43767 M 36.31487,65.18942 34.97325,69.26433 c -1.35072,1.35072 -3.229,0.80953 -4.84805,0.80953 2.42857,-0.80953 4.03398,-3.25629 4.84805,-4.88444 0.52755,-0.26832 0.79588,0 1.34162,0 m 33.34511,3.25629 H 68.8641 c -3.23355,0.81862 -5.65757,-1.09149 -8.08159,-2.71509 1.61904,-0.5412 2.96522,-0.5412 4.03852,-0.80952 h 0.80952 l 1.07331,1.62359 c 0.80952,0.27288 2.16024,1.0915 2.95612,1.90102 m 52.18724,-0.27742 c -1.86009,0 -3.75202,-0.81407 -4.03399,-1.6236 -0.52756,-0.5412 -0.25923,-1.62359 -1.33709,-1.62359 -0.80043,0 -1.34163,0.80952 -1.34163,0.80952 -0.81408,0.27287 -2.43313,-0.80952 -2.43313,0 0,1.36437 -1.34164,1.90557 -2.41949,1.90557 -0.81408,0 -1.06876,0 -1.88284,-0.28197 v -2.71509 c 3.76567,0 3.49733,-1.35527 5.12094,-1.35527 1.06422,0 1.8783,0.82317 2.95615,0.82317 1.33709,0 0.5412,-0.5503 1.88737,-0.5503 1.35074,0 1.86921,1.0824 2.95616,1.36437 0,0.80952 0.52755,1.89647 0.52755,3.24719 M 32.55377,61.65117 c 0,1.08239 -0.80952,2.72418 -2.16024,4.07945 -0.26833,0.27287 -1.06876,0.81407 -1.06876,0.81407 0,-1.62359 0.80043,-3.26083 0.80043,-4.6252 0.80952,-0.26832 1.61905,-0.81407 2.42857,-0.26832 m 41.95881,3.53825 c -1.35072,0 -3.229,0 -4.3023,-0.81407 -1.61905,-1.09149 -2.1557,-1.64179 -2.96523,-2.45586 1.0824,-0.81407 2.41493,-0.81407 3.229,-1.08239 0.80953,1.08239 2.15116,3.26993 4.03853,4.35232 m 13.43905,-1.36891 c 0,0.81862 -0.5321,1.10059 -1.06876,1.63724 0,0 -1.0733,-1.35072 -1.0733,-2.17389 0,-0.81862 0,-1.63269 0.25923,-2.44676 0.81407,0.81407 1.88283,1.89646 1.88283,2.98341 m 12.37032,0.55484 c -2.410395,-1.64179 -4.020355,-4.084 -6.171515,-6.51712 2.15116,0 2.94705,2.16025 4.55701,2.43312 0.5412,0.54575 1.0824,0.81407 1.614505,1.62814 z M 50.29963,57.57626 c 0,1.91011 -0.27288,4.34323 -2.15115,5.1573 l -0.81407,-2.71508 c 1.08239,-0.53211 1.89191,-1.35072 2.96522,-2.44222 m -5.9168,4.34323 c -1.6145,-1.62814 -2.96977,-3.25173 -2.96977,-4.87533 0.81407,0 1.6145,0 2.43312,0.81407 0,1.35527 0.79588,2.43312 0.53665,4.06126 m 76.93683,-0.26832 c -2.42403,-1.08695 -5.92138,-2.1648 -7.79968,-2.1648 -1.07784,0 -4.30686,1.35073 -5.65759,2.71054 l -0.53211,-2.71054 c 1.88284,-0.27287 1.88284,-1.62814 2.9516,-1.62814 0.80952,0 1.88283,-0.28197 2.71055,-0.28197 0.79134,0 1.32799,-0.80952 1.87829,-0.80952 1.06876,0 0.52756,1.62814 1.60541,1.62814 0.80954,0 1.07786,-0.53665 1.88738,-0.53665 1.35074,0 2.67873,2.16025 2.95616,3.79294 M 56.48475,61.91949 C 55.13858,61.10542 52.7191,60.8371 52.98743,59.2135 c 0.80497,-1.35527 1.60995,-1.63724 2.15115,-2.44676 0.26832,1.90102 0.54574,3.52461 1.34617,5.15275 m 24.74961,-1.62814 -1.34163,0.54575 c -2.96522,0 -4.57972,-0.81862 -5.92135,-2.16934 1.0733,0 2.69235,-1.0915 2.69235,-1.0915 1.33708,1.0915 3.229,2.44222 4.57063,2.71509 M 28.78357,57.57626 c -1.0733,1.0915 -2.42857,1.91011 -3.229,3.52916 0,-0.81407 -0.26377,-1.61905 -0.53665,-2.43766 0.27288,-0.80953 1.07785,-1.6236 1.6145,-1.90102 0.53665,0.27742 1.34618,0.27742 2.15115,0.80952 m 34.42296,3.26084 c -1.0733,0.26832 -2.95613,0.81407 -3.76565,-0.54575 -1.6145,-2.43312 -0.53665,-4.88443 0.27742,-6.7718 0.5321,1.61904 0.80043,3.24719 1.06421,4.87533 0.27742,1.09149 1.88737,1.6236 2.42402,2.44222 m 21.2523,-4.61156 c -1.07785,0.5412 -3.22447,0.81862 -4.83897,-0.27288 l 2.15115,-1.35527 c 0.80499,0.80953 1.88739,1.35527 2.68782,1.62815 m 30.4119,-0.81862 c -1.62816,0 -2.16935,-0.26833 -3.51099,-0.26833 -1.07785,0 -2.69236,0.81407 -3.77022,1.90557 -0.53665,-0.81862 -0.25923,-1.63724 0,-2.44677 0.80953,-0.81861 2.15116,-1.90101 3.50189,-1.90101 1.90103,0 3.77932,1.62814 3.77932,2.71054 M 35.5008,58.39488 c -1.87827,-0.53665 -3.75655,-2.16934 -4.56608,-3.79749 -0.54119,-1.07784 -0.80952,-2.44221 -0.80952,-3.53825 1.07785,0.26832 1.88282,1.09604 2.42857,1.63724 v 0.26832 c 1.06876,1.63269 2.68326,3.26084 2.94703,5.43018 m 3.50188,-4.6161 -0.53666,3.79748 c -1.08239,-1.6236 -1.88737,-3.25174 -2.15115,-5.42108 z m 27.70118,3.26538 c -1.61451,0.5321 -2.68781,-0.81862 -3.76565,-1.63724 -0.80498,-1.62814 -0.80498,-3.25174 -1.33708,-4.34778 1.33708,1.09604 3.48822,1.09604 3.2199,3.53825 0,0.80953 1.0824,1.62815 1.88283,2.44677 m 6.458,-3.26538 c -1.6145,0 -3.50188,0.81861 -4.29776,-0.81408 0.53211,-0.26832 1.0733,-1.08239 1.87828,-1.63724 z m 41.97265,-2.71964 c -1.89194,-0.5412 -3.23812,-1.08695 -4.85262,-1.08695 -0.81408,0 -3.22902,0.54575 -3.4928,1.08695 -0.82317,-0.81407 0.5412,-3.25174 1.60996,-3.79749 1.06876,-0.5412 1.88284,-0.26832 2.42404,0 0,1.63269 1.87829,0.81862 2.96069,1.35527 0.53665,0.81407 1.08695,1.62815 1.35073,2.44222 M 78.27823,49.70387 c -0.5412,0.81407 -1.35072,0 -1.88737,0 h -2.41948 c -0.26833,-0.80953 -0.5412,-1.08695 -0.80952,-1.6236 1.35072,-0.27287 2.15115,-0.81862 2.96522,-0.27287 0.80043,0.80952 1.06875,1.89647 2.15115,1.89647 M 55.13858,45.36973 c -0.26378,1.6236 -0.80498,4.33414 -2.41948,5.14821 0,-0.81407 -0.80952,-1.6236 -1.34617,-2.43767 -0.26378,0 0,0.81407 -0.26378,0.81407 0,0.80953 -0.26832,1.6236 -0.26832,2.98797 -0.81408,0.27287 -1.89193,0.81407 -2.96523,0.27287 v -0.82772 c -0.54119,-0.80952 -0.54119,-1.62359 -0.54119,-2.43312 l -0.26378,-0.27742 c -0.53665,0.27742 -0.53665,1.08695 -0.53665,1.62815 -0.27288,0.27287 -1.07331,1.08239 -1.07331,1.91011 -0.81861,0 -1.61449,-0.27287 -2.43311,-0.82772 v -2.71054 c 0,-0.53665 0,-0.53665 -0.25923,-0.53665 l -1.35527,1.6236 c -1.06421,-1.08695 -1.33253,-3.25629 -1.33253,-4.88898 4.56153,-2.43313 9.94622,-1.6236 13.44355,-0.26378 0.53665,0.26378 1.0733,0.26378 1.6145,0.81862 m 20.9885,-2.17844 c -1.6145,0 -2.42403,-0.80953 -3.23355,-2.44677 0,-0.80952 -0.26832,-1.90101 0,-3.26083 0.26833,0.81862 0.53665,1.63269 1.07785,2.17389 1.0733,-0.5412 1.0733,0.81407 1.34163,1.08694 0.27287,0.81408 0.81407,1.63724 0.81407,2.44677 m -5.9168,-13.31167 c 0,0.27742 -0.5503,2.44221 -0.5503,2.44221 l -2.1466,0.81862 1.35072,-6.24879 c 0.53211,1.08239 1.34618,2.17389 1.34618,2.98796 M 27.44649,25.25896 26.355,26.89166 c 0.27742,2.98796 -1.0642,4.88897 -1.0642,7.33119 l -1.35527,-4.34323 c 0.27742,-1.35527 0.54119,-2.43767 1.35527,-3.80658 z m 42.21349,17.1228 c -3.2199,-1.91011 -6.9901,-3.26538 -11.02863,-3.53825 0,0.81407 0,1.62814 -0.26377,1.90101 3.23355,1.63724 6.45345,3.25175 9.1458,5.70306 v 2.44676 c -2.69235,-2.71509 -5.91225,-5.70305 -9.687,-6.51258 -0.26833,0.53666 -1.06875,1.35528 -1.60995,2.16935 -1.88283,-1.35982 -4.03852,-2.44677 -6.44891,-2.99251 -0.81862,0 -1.08239,-1.08695 -1.08239,-1.90102 L 48.4168,38.30231 c 1.35072,-0.27742 2.42403,-1.36437 2.69235,-2.71509 0.26378,0.27287 0.80043,0.27287 1.33708,0.27287 0.5412,-0.27287 0.5412,-0.81862 0.5412,-1.63724 0,-1.62359 -3.49278,-1.62359 -5.11183,-1.62359 -1.87373,0 -3.23354,-0.27743 -4.57062,0.81407 -0.53665,0 -0.27742,0.80952 -0.27742,1.35527 0,0.27287 0.81862,0.81862 0.81862,0.81862 0.79588,0 1.0733,-0.54575 1.61449,-0.54575 -0.27742,1.62815 0.5412,2.71054 1.87374,3.26084 l -0.26378,2.44221 c -0.80953,0.81408 -2.15115,0.27288 -3.22445,0.81408 -1.61905,0.82316 -3.22901,1.63269 -4.8435,2.43767 -0.80043,-0.80498 -1.34618,-1.61451 -1.87828,-2.43767 -2.6969,0.82316 -4.30685,2.43767 -6.9992,4.07491 -0.80043,0.54574 -2.1466,1.62814 -2.1466,1.62814 -0.26833,-0.26832 0,-1.0824 0,-1.89192 2.41493,-2.45131 5.64393,-3.26539 8.33627,-4.89808 v -2.16934 c -1.07784,-0.27742 -2.15569,0 -3.49732,0 -2.42402,0.5412 -4.83895,1.63269 -6.72178,2.98796 0,-0.81862 -0.5412,-1.63269 0.25923,-2.17389 2.96977,-1.63269 6.46255,-2.71509 10.22365,-2.44676 v -1.0824 c -0.26378,-0.54575 -0.26378,-1.36437 -0.80952,-1.36437 -1.60995,-1.90102 -3.21536,-4.06581 -3.21536,-5.97138 l 0.80043,-0.54574 c -0.53665,-1.63269 -0.80043,-5.7076 0,-7.59952 -1.60995,-0.545748 -3.229,-2.173892 -3.7611,-3.260837 -0.5412,-1.359818 -1.07785,-2.17389 -1.34163,-3.802033 0.5321,-1.632692 1.34163,-2.437668 2.14206,-4.074907 0.54119,0 1.35072,-0.268325 1.61449,-0.814071 1.34618,-0.268326 2.41948,-1.632692 4.03853,-0.814072 1.07785,0 2.1557,0.545746 2.95613,0.814072 0,0.545746 0,0.814071 0.80952,1.359818 1.60086,0.268325 1.60086,1.896468 2.41493,3.251739 0.80043,0.277421 1.61905,0.277421 2.41493,0.277421 1.61904,0.545746 2.69235,0.545746 3.50642,1.359818 2.15115,-1.359818 4.57062,-1.637239 6.9901,-1.359818 0.26832,-1.086945 0.81407,-1.905565 1.07785,-3.260835 0.5412,0.545746 0.26832,-0.268325 0.80952,-0.268325 1.34163,-0.814072 2.69235,-2.17389 4.57518,-1.628144 1.33708,0.814072 3.2199,0.268326 4.02942,1.896469 1.07331,0.823167 1.6145,2.446763 2.42403,4.074907 -0.80953,1.628143 0,4.074906 -1.6145,4.88443 l -1.61905,1.637238 c -0.53665,0 -0.80498,0.53665 -1.6145,0.53665 0.80952,1.90102 0.26378,4.89353 -0.53665,6.79 0.53665,-0.26378 1.34617,-0.26378 1.6145,-1.0824 0.27287,0.26833 0,0.81862 0,1.0824 -0.26833,0.54574 -0.26833,0.81862 -0.26833,0.81862 0.26833,1.63269 -0.80952,2.98341 -1.88282,4.07491 -0.5321,1.62359 -1.88283,3.80203 -3.76565,4.07036 v 0.81407 c 4.03397,0 7.53585,0.81862 11.2924,2.98796 z M 130.179,24.44944 c -0.80498,-0.81407 -1.6145,-1.63269 -2.68782,-1.63269 -0.80497,-1.0824 -1.86464,-2.43767 -2.96523,-2.43767 0.82317,-0.27287 1.88738,-0.818618 3.23356,-0.818618 0.80499,1.355268 1.61451,2.437668 1.88739,3.256288 z M 26.90075,21.18861 25.01792,21.99813 25.2908,20.37908 c 0.5321,-0.818618 0.80497,-1.637238 1.60995,-2.446762 z M 121.588,18.478064 c -1.0733,0 -1.87374,0.263778 -2.96979,0 -0.52301,-0.545746 -1.33253,0 -1.86465,0.263778 -0.55484,0 -1.07784,-0.263778 -1.88283,-0.809524 1.60541,0 2.41495,-1.086945 3.74748,-1.632691 1.09605,0.814071 2.16026,1.359818 2.96979,2.178437 M 62.13323,96.965562 c 0,-1.0824 -0.80953,-1.62815 -1.88283,-1.62815 -0.80952,0 -1.88282,1.07785 -1.88282,1.62815 0,1.08695 -0.80953,7.331228 -0.80953,7.331228 h 2.16025 c 0.80043,-2.71055 2.41493,-5.980498 2.41493,-7.331228 m -6.18058,-0.27742 h -0.26833 l -2.16024,-2.16936 h -0.26833 c -0.53665,0.53666 -0.80952,1.36438 -1.34617,2.16936 0,2.44677 0.80952,5.170968 1.34617,7.608648 h 2.42857 c 0,-2.71055 0.26833,-5.161878 0.26833,-7.608648 m 43.295995,-3.26086 -2.67872,0.27743 c 0.80043,0.81407 0.80043,1.90103 0.80043,2.44223 0,0.81862 -0.27287,1.62815 -0.80043,2.16935 -0.80498,-0.5412 -0.80498,-1.35073 -1.35528,-2.16935 -0.5412,0 -0.80043,1.35073 -0.80043,1.90557 0,2.710548 1.06876,4.625228 1.88738,6.244278 h 2.68327 c -0.27742,-2.43768 -0.80498,-4.352348 -0.80498,-6.799118 0,-1.35073 0.80498,-2.97889 1.06876,-4.07039 M 160.04059,67.35422 c 0,-11.40156 -3.76567,-23.61718 -13.99848,-33.94089 -1.61905,-1.6327 -3.75202,-3.53371 -5.91228,-4.88898 -4.034,-2.71509 -7.79058,-6.52622 -9.95084,-10.592032 -1.34163,-1.632691 -2.41949,-2.446763 -4.04309,-3.260835 0.27742,0.814072 0.80953,1.628144 1.0824,2.442215 h -0.27287 c -1.59632,0 -2.9425,-0.814071 -4.02945,-1.628143 l 1.08695,-1.082397 c -0.26833,-0.545746 -1.08695,-0.545746 -1.62816,-0.545746 -4.82078,-0.814072 -8.85479,1.628143 -13.16165,2.442215 v 0.545746 c 2.68326,1.086945 3.22902,4.343237 4.83898,5.971377 h 1.62361 c 0.80042,0 1.60996,0.81862 2.13751,0.54575 0,-0.54575 -0.52755,-1.36437 -0.52755,-1.62815 0.52755,-0.54574 1.07784,-0.54574 1.60996,0 1.33708,0.80953 3.47914,-0.54574 4.55245,1.62815 -1.60086,0 -3.21537,0.27287 -4.55245,0.81407 0,0.27287 0.81862,1.08239 0.53665,1.63269 -1.33709,-0.5503 -2.95615,0 -3.75657,-1.35982 l -0.27743,0.5412 c 1.88739,1.90102 4.31597,3.53371 6.72636,4.35233 3.75658,0.81407 6.98559,-1.0915 10.47839,-0.27742 4.0431,1.90101 7.25847,4.34778 9.94629,7.06287 8.88207,9.50509 12.12473,19.55137 12.12473,28.51071 0,11.133232 -3.24266,19.014712 -8.07709,23.903692 -2.96979,2.99253 -6.73546,5.70764 -11.30611,5.70764 -1.07331,0 -3.22447,-0.28197 -4.57066,-1.35983 0.79589,-3.2654 1.34619,-6.79457 1.34619,-11.94733 0,-2.99705 0,-10.869442 -3.75658,-20.106202 -0.81863,-1.90102 -3.78386,-7.8724 -7.53134,-11.94276 -2.96524,-2.98796 -6.45804,-5.70305 -9.95538,-5.70305 -1.60996,0 -3.23357,0.27287 -4.58885,1.35982 -1.32798,1.35527 -2.14661,3.52916 -1.86919,5.15276 -2.42858,1.35527 -5.925925,2.45131 -8.882065,2.45131 -3.4928,0 -7.258465,-1.91011 -10.487485,-4.07491 v -4.084 C 83.11265,43.19129 82.576,42.38176 82.31222,40.74452 L 82.576,40.47165 c 0.80498,0.27287 1.35073,0.81862 1.88283,1.08695 -0.27287,-1.90102 -0.5321,-4.07491 -1.60996,-5.69851 -0.80953,0 -1.61451,-0.27287 -2.42859,-0.81862 -1.07329,-0.81862 -1.61449,-1.90102 -1.61449,-3.26084 0.81407,1.35982 2.16025,0.81863 2.96522,1.6327 -1.35073,-3.25629 -0.80497,-4.88898 -3.23355,-10.05083 -0.80043,-2.44677 -3.22445,-3.802038 -4.83441,-5.430182 -0.80952,-0.81862 -1.07784,-1.632691 -2.41947,-1.632691 -0.80953,-0.268325 -0.80953,-1.628144 -1.0733,-2.442215 0.5321,0 1.0733,0.545746 1.6054,0.814071 -1.34163,-4.065811 -2.6878,-8.149813 -6.458,-10.58748 L 64.82103,4.629749 C 63.20653,4.893527 61.60113,4.893527 60.2504,4.893527 60.78251,4.084003 61.8649,3.81113 62.93821,3.269931 61.8649,2.451311 61.05993,2.178438 59.44088,2.178438 58.90423,2.451311 57.55805,3.269931 56.48475,3.269931 h -0.26832 c 0,-0.81862 -0.26378,-1.910112 1.34162,-2.451311 -1.6054,-0.272873 -2.96067,-0.272873 -4.83895,0 -0.27287,1.359818 -1.34617,2.182986 -1.34617,3.265383 -0.80043,0.809524 -1.0733,1.623595 -1.87828,2.437667 0,-1.891921 0.80498,-3.520064 1.07785,-5.161851 C 49.49465,1.632692 48.14848,2.451311 47.33441,2.451311 45.18325,1.359819 42.49091,0 41.41306,0 c 1.6145,1.359819 0.81407,3.269931 1.07785,4.893527 L 41.41306,4.084003 C 40.88095,3.001606 39.8122,2.178438 39.271,0.81862 c -1.6145,0 -2.69235,0.541199 -4.03397,1.359818 l -0.26378,0.272873 c 1.0733,0 2.15115,0.81862 2.68325,1.632692 -1.88737,0 -3.229,-0.814072 -5.10273,-0.814072 0,0 0,-0.268325 -0.54575,-0.268325 -0.80497,0.268325 -1.61449,1.082397 -2.15569,1.628143 -1.87373,1.623596 -3.21991,3.256287 -4.29776,5.698502 0.5412,0 1.34618,0 1.6145,0.277421 -0.81407,0.532103 -1.6145,1.623596 -2.69235,2.160247 v 4.079454 c -0.80497,1.086945 -1.87372,1.896469 -2.41947,3.260837 -1.34163,4.88443 -1.6145,10.05083 -1.6145,15.75388 -0.53665,0.80953 -1.0733,1.07785 -1.6054,1.35527 v 4.88898 c 0,0 1.87827,-1.90101 2.68325,-2.44676 0,1.08694 -0.26833,2.72418 -0.26833,3.80658 -0.80952,0 -1.88282,1.08695 -1.88282,2.16935 0,1.08694 0.26832,2.17389 0.26832,3.26083 0,0.53665 0,0.80953 0.26833,1.35073 0.27287,-0.5412 0.80952,-1.35073 1.34617,-1.62815 0.26833,0 0.80498,-0.53665 1.60996,-0.53665 -0.53211,0.81407 -0.80498,2.1648 -1.34163,3.24719 l -0.80498,0.82772 c 0,0 -0.27287,0.5412 -0.27287,0.80952 0.80952,5.70306 2.69235,11.14233 4.84805,16.84083 -1.88738,3.792942 -3.7702,7.876942 -4.57518,10.860352 -0.80952,2.17389 -1.87827,6.51712 -1.87827,6.51712 -1.34618,-1.35527 -3.2381,-1.62814 -4.84805,-1.62814 -1.88283,0.27287 -3.50188,0.81407 -4.83895,2.44222 -1.6145,-0.81408 -3.7702,-0.54575 -4.8435,0.81407 -2.41948,2.183 -2.41948,3.2654 -2.41948,4.89356 C 1.07785,94.518782 0,95.883162 0,97.775092 c 0,2.719648 0.54574,4.347798 1.88737,6.521698 h 42.75469 c -0.53211,-0.81407 -1.06876,-1.89648 -1.6145,-2.71055 -0.80043,-1.641798 -0.25923,-3.811148 -0.25923,-5.439298 0.80497,-1.62816 1.87373,-3.25631 2.69234,-4.88901 0.26378,-0.80498 0,-0.80498 0.5412,-1.0824 l 1.87373,-0.80953 c 1.0733,0 1.89192,-0.55485 3.23355,-0.55485 1.06876,1.36438 1.06876,-1.08695 2.41493,-1.62815 3.23355,-0.27287 5.9168,0 7.53585,2.44223 0,0.5503 0.5412,0.5503 0.5412,0.82772 H 60.2504 c -1.61905,-0.82772 -3.76565,-1.6418 -5.65302,-0.82772 0,0.82772 -0.26378,0.82772 -0.26378,1.6327 v 1.35983 c 1.0733,0.27287 1.88283,1.08695 2.96068,1.90102 0.5321,-1.0915 2.1466,-1.90102 3.48823,-1.90102 1.35072,0 3.50187,0.80952 3.50187,3.2654 0,1.0824 -0.26833,2.16935 -0.26833,3.25175 1.0733,0.80953 2.68781,1.077858 4.03853,1.896488 -0.5412,0.82771 -1.35072,0.82771 -2.15115,0.82771 h -2.43312 c -0.26378,-0.27287 -0.80043,-0.27287 -0.80043,-0.82771 -0.80498,0.82771 -1.34618,2.1739 -1.88737,3.26539 h 32.822175 c -0.52756,-1.09149 -1.0824,-1.89648 -1.34618,-2.71055 -0.80498,-1.641798 -0.5412,-3.811148 -0.80498,-5.439298 l 3.21992,-4.32962 c 1.62815,0 3.23811,-0.55939 6.194245,-0.82317 0.52756,-0.81862 0,-1.36892 2.4104,-1.62815 2.16026,0 3.51099,0.80953 4.05219,1.08695 0.25923,0.5412 0.25923,0.5412 0,1.0824 -0.5412,0.5412 -1.61906,-0.5412 -2.42403,-0.27742 -0.54121,0.55939 0.26832,0.81862 0.26832,1.35983 0.53665,0.5412 -2.43314,-0.54121 -2.43314,-0.54121 0,0 -0.80497,1.62816 -1.0733,2.44223 0,0 1.34164,0.81863 1.60996,1.62816 0.5412,0.81862 -0.53666,1.62815 -0.53666,2.44677 -0.80497,-0.27742 -1.61905,-1.09604 -1.87374,-0.81862 -0.54574,2.16935 0,4.084018 -0.27742,6.521698 h 2.9607 l 0.53665,-4.893548 c 0.27742,-2.7151 3.50189,-7.86789 5.38018,-7.86789 1.35528,0 1.89193,0.5412 2.97434,1.35528 0.80042,0.81408 1.87828,1.62815 1.87828,2.16481 0,0.28197 -0.80044,0.82772 -2.15571,0.82772 -0.53211,0 -0.80498,-0.82772 -1.34163,-1.36438 l -1.60996,1.62816 c 0,0 1.87828,1.62815 1.87828,2.98797 0,1.077858 -0.26832,1.896488 -1.35073,2.451328 l -1.60541,-3.269948 c -0.80498,0 -2.16935,1.62815 -2.16935,2.715108 0,1.09149 -0.52756,1.64634 -0.52756,3.26539 h 17.47763 c 1.89648,0 3.49734,-0.54575 5.39382,-1.61905 h 3.47916 c 4.85717,0 11.04233,-0.81863 17.48217,-7.071998 10.2328,-9.77801 10.76946,-23.08967 10.76946,-28.251522 M 51.10915,104.29679 c -1.34163,-2.71055 -1.6145,-6.521698 -1.6145,-7.331228 0,-1.62815 0,-3.53828 0.80498,-4.88901 l -3.229,0.81408 c -0.53665,0.81408 -0.80953,1.62815 -0.80953,2.16481 l 1.07331,-0.53666 c 0.54119,0 0.81407,0.53666 1.08239,0.81863 -0.26832,1.62815 -1.88282,1.62815 -2.69235,2.16026 -0.80497,2.715098 1.60996,4.361438 2.15115,6.799118 z"
       style="fill:#f36917;fill-opacity:1;fill-rule:nonzero;stroke:none;stroke-width:4.5479"
       id="path130" />
  </g>
</svg>
