<?xml version="1.0" encoding="UTF-8" standalone="no"?>
<svg
   xmlns:dc="http://purl.org/dc/elements/1.1/"
   xmlns:cc="http://creativecommons.org/ns#"
   xmlns:rdf="http://www.w3.org/1999/02/22-rdf-syntax-ns#"
   xmlns:svg="http://www.w3.org/2000/svg"
   xmlns="http://www.w3.org/2000/svg"
   xmlns:sodipodi="http://sodipodi.sourceforge.net/DTD/sodipodi-0.dtd"
   xmlns:inkscape="http://www.inkscape.org/namespaces/inkscape"
   viewBox="10 0 100 100"
   version="1.1"
   id="svg8"
   sodipodi:docname="Logo_HVB_Squared.svg"
   inkscape:version="1.0.1 (0767f8302a, 2020-10-17)"
   width="100"
   height="100">
  <defs
     id="defs2" />
  <metadata
     id="metadata5">
    <rdf:RDF>
      <cc:Work
         rdf:about="">
        <dc:format>image/svg+xml</dc:format>
        <dc:type
           rdf:resource="http://purl.org/dc/dcmitype/StillImage" />
        <dc:title></dc:title>
      </cc:Work>
    </rdf:RDF>
  </metadata>
  <g
     inkscape:label="Ebene 1"
     inkscape:groupmode="layer"
     id="layer1">
    <path
       id="path80"
       style="display:inline;fill:#e2001a;fill-opacity:1;fill-rule:evenodd;stroke:none;stroke-width:3.96723"
       d="M 59.999261,0 C 32.383071,0 10,22.383246 10,49.999015 10,62.138688 14.324287,73.266867 21.520918,81.927299 27.801114,72.897916 43.305342,50.629917 46.705297,46.083491 50.62099,40.842802 59.547112,29.182797 61.058639,27.207124 l 0.07546,-0.09508 0.912618,-1.289328 0.09097,-0.130741 c 0.769657,-1.126688 0.448569,-1.959827 -0.06715,-2.408121 l -8.081278,-4.98316 c -0.55939,-0.376883 -0.928647,-1.015145 -0.928647,-1.745112 0,-1.15049 0.686407,-2.01962 2.249513,-2.452047 4.982895,-1.36869 22.510481,-2.086695 28.465368,-2.086695 2.06695,0 5.62558,-0.008 8.819225,0.0832 L 92.455657,11.965161 C 83.723677,4.5028347 72.389054,0 59.999261,0 Z m 43.883279,15.534451 0.0673,0.19017 c 1.21792,3.673636 -1.19056,5.974611 -2.92029,7.541659 C 100.08162,24.127139 87.386451,36.096508 72.497285,49.1169 59.373537,60.590079 44.694869,72.265554 36.193005,78.632927 24.231673,87.586927 21.9027,88.888113 21.9027,88.888113 c -0.313408,0.17059 -0.841124,0.317294 -1.229917,0.317294 -0.729978,0 -1.364592,-0.329335 -1.765296,-0.849043 l -0.01192,-0.01964 -0.02787,0.384471 c 1.281436,2.074852 3.407993,4.483447 4.64578,4.483447 0.388801,0 0.916677,-0.147045 1.234052,-0.313674 0,0 0.936222,-0.523756 4.764647,-3.257167 C 37.950603,96.132102 48.523424,100.0001 60.000737,100.0001 87.616929,100.0001 110,77.617368 110,50.001597 c 0,-8.35892 -2.04701,-16.233941 -5.67315,-23.156727 l 0.004,0.0041 c 1.72182,-1.658292 3.70506,-4.284879 2.39989,-7.573698 -0.40471,-0.979902 -2.34855,-3.20132 -2.84842,-3.740859 z" />
  </g>
</svg>
